<svg width="0" height="0" class="hidden">
  <symbol xmlns="http://www.w3.org/2000/svg" viewBox="0 0 16 16" id="lupa">
    <path fill-rule="evenodd" clip-rule="evenodd" d="M11.206 12.617l3.09 3.086a.985.985 0 001.41 0 1.016 1.016 0 000-1.43l-3.08-3.08a7.007 7.007 0 10-5.619 2.821c1.575 0 3.029-.52 4.199-1.397zm-4.2-.605a5.004 5.004 0 11.001-10.01 5.004 5.004 0 015.004 5.005 5.004 5.004 0 01-5.003 5.005h-.002z" fill="#111"></path>
  </symbol>
  <symbol xmlns="http://www.w3.org/2000/svg" viewBox="0 0 17 18" id="pen">
    <path fill-rule="evenodd" clip-rule="evenodd" d="M16.36 1.94a2.183 2.183 0 00-2.531-.397 7.377 7.377 0 00-.326-.358 2.166 2.166 0 00-3.06 0l-3.85 3.851a.704.704 0 000 .996.713.713 0 00.995 0L11.44 2.18a.755.755 0 011.068 0l.257.259L11.2 4.004a.366.366 0 000 .517l2.58 2.578a.365.365 0 00.516 0l2.065-2.064a2.19 2.19 0 000-3.094zm-5.936 3.355a.365.365 0 00-.516 0l-5.793 5.794a1.094 1.094 0 000 1.55l1.55 1.548a1.096 1.096 0 001.548 0l5.794-5.793a.366.366 0 000-.516l-2.583-2.583zm-7.606 7.672a.352.352 0 01.15.09l2.423 2.423a.352.352 0 01-.129.58L1.47 17.43a.36.36 0 01-.37-.084.352.352 0 01-.082-.368l1.37-3.793a.352.352 0 01.43-.218z"></path>
  </symbol>
  <symbol xmlns="http://www.w3.org/2000/svg" viewBox="0 0 21 15" id="student">
    <path fill-rule="evenodd" clip-rule="evenodd" d="M11.247.907l9.335 3.64h-.004c.127.05.235.135.31.246a.647.647 0 01-.335.981L11.218 9.01a.666.666 0 01-.443 0L2.999 6.313v3.968a.976.976 0 01-.293.695 1.01 1.01 0 01-1.415 0 .974.974 0 01-.293-.695V5.484a.888.888 0 01.042-.197.224.224 0 00-.02-.048c-.01-.022-.022-.044-.022-.07a.646.646 0 01.112-.376.665.665 0 01.31-.246l9.335-3.64a.678.678 0 01.492 0zM11 10.478l5.11-1.775h-.002a.678.678 0 01.607.084.658.658 0 01.281.535v3.274a.647.647 0 01-.123.378.665.665 0 01-.322.239l-4.001 1.389a4.775 4.775 0 01-3.105 0l-4-1.389a.665.665 0 01-.323-.239.647.647 0 01-.123-.378V9.322a.646.646 0 01.281-.535.674.674 0 01.607-.084L11 10.478z"></path>
  </symbol>
  <symbol xmlns="http://www.w3.org/2000/svg" viewBox="0 0 20 14" id="video">
    <path d="M18.842 1.493a1.182 1.182 0 00-1.01-.97 58.956 58.956 0 00-15.667 0 1.18 1.18 0 00-1.01.969 31.127 31.127 0 000 11.015 1.181 1.181 0 001.01.97 58.938 58.938 0 0015.668 0 1.18 1.18 0 001.01-.97 31.141 31.141 0 000-11.014zM6.89 9.349V4.652a.809.809 0 011.193-.671l4.604 2.348a.744.744 0 010 1.342L8.082 10.02a.808.808 0 01-1.193-.67z"></path>
  </symbol>
  <symbol xmlns="http://www.w3.org/2000/svg" viewBox="0 0 8 16" id="fb">
    <path d="M8 0v3.2H6.4c-.552 0-.8.648-.8 1.2v2H8v3.2H5.6V16H2.4V9.6H0V6.4h2.4V3.2A3.2 3.2 0 015.6 0H8z" fill="#4B629E"></path>
  </symbol>
  <symbol xmlns="http://www.w3.org/2000/svg" viewBox="0 0 24 24" id="google">
    <path fill="#fff" fill-opacity=".01" d="M4 4h15.999v16H4z"></path>
    <path d="M7.546 13.668l-.557 2.08-2.035.043A7.964 7.964 0 014 11.998a7.96 7.96 0 01.895-3.679l1.813.332.793 1.802a4.755 4.755 0 00.045 3.214z" fill="#FBBB00"></path>
    <path d="M19.86 10.505a8.006 8.006 0 01-.035 3.165 7.998 7.998 0 01-2.816 4.568l-2.283-.117-.323-2.016a4.768 4.768 0 002.051-2.435h-4.278v-3.165h7.684z" fill="#518EF8"></path>
    <path d="M17.008 18.238A7.966 7.966 0 0112 20a7.999 7.999 0 01-7.046-4.209l2.592-2.122a4.757 4.757 0 006.856 2.436l2.606 2.133z" fill="#28B446"></path>
    <path d="M17.107 5.842l-2.592 2.121a4.758 4.758 0 00-7.013 2.491L4.896 8.321A7.998 7.998 0 0112 4c1.94 0 3.72.691 5.106 1.842z" fill="#F14336"></path>
  </symbol>
  <symbol xmlns="http://www.w3.org/2000/svg" viewBox="0 0 20 11" id="vk">
    <path d="M18.8.74c.13-.42 0-.74-.62-.74h-2.02c-.52 0-.75.27-.88.57 0 0-1.03 2.51-2.49 4.15-.48.47-.69.62-.95.62-.13 0-.34-.15-.34-.58V.74c0-.51-.12-.74-.55-.74H7.76c-.32 0-.51.24-.51.47 0 .48.75.6.8 1.97v2.98c0 .66-.12.78-.37.78C7 6.2 5.32 3.67 4.33.79 4.13.23 3.94 0 3.42 0H1.39C.82 0 .7.27.7.57c0 .54.69 3.2 3.2 6.72C5.57 9.7 7.93 11 10.08 11c1.29 0 1.45-.29 1.45-.79V8.39c0-.57.12-.69.53-.69.3 0 .81.15 2.01 1.3 1.38 1.38 1.6 2 2.38 2h2.02c.58 0 .87-.29.71-.86-.18-.57-.84-1.4-1.71-2.38-.47-.55-1.18-1.15-1.4-1.46-.3-.38-.21-.55 0-.9 0 0 2.47-3.47 2.73-4.66z" fill="#627DA1"></path>
  </symbol>
</svg>