<svg width="17" height="18" viewBox="0 0 17 18" fill="none" xmlns="http://www.w3.org/2000/svg">
<path fill-rule="evenodd" clip-rule="evenodd" d="M16.3598 1.94072C16.0337 1.61604 15.6133 1.40274 15.1587 1.33129C14.7041 1.25984 14.2385 1.33391 13.8285 1.5429C13.8053 1.5098 13.5884 1.2704 13.5032 1.1845C13.0972 0.779429 12.5471 0.551941 11.9735 0.551941C11.4 0.551941 10.8499 0.779429 10.4438 1.1845L6.59235 5.03599C6.46035 5.16803 6.3862 5.3471 6.3862 5.5338C6.3862 5.72051 6.46035 5.89957 6.59235 6.03161C6.72546 6.16158 6.90412 6.23433 7.09016 6.23433C7.2762 6.23433 7.45486 6.16158 7.58797 6.03161L11.4395 2.18012C11.5811 2.03853 11.7732 1.95899 11.9735 1.95899C12.1738 1.95899 12.3659 2.03853 12.5076 2.18012L12.7653 2.43853L11.1987 4.00447C11.1303 4.07309 11.0919 4.16601 11.0919 4.26288C11.0919 4.35975 11.1303 4.45266 11.1987 4.52129L13.7799 7.09904C13.8483 7.16732 13.941 7.20567 14.0376 7.20567C14.1343 7.20567 14.227 7.16732 14.2953 7.09904L16.3598 5.03459C16.7697 4.62413 17 4.06775 17 3.48765C17 2.90755 16.7697 2.35117 16.3598 1.94072ZM10.4242 5.29504C10.3557 5.22672 10.2629 5.18835 10.1661 5.18835C10.0694 5.18835 9.97658 5.22672 9.90807 5.29504L4.11535 11.0892C4.0135 11.1908 3.93269 11.3115 3.87756 11.4444C3.82243 11.5773 3.79405 11.7198 3.79405 11.8637C3.79405 12.0076 3.82243 12.1501 3.87756 12.283C3.93269 12.4159 4.0135 12.5366 4.11535 12.6382L5.66439 14.1873C5.76603 14.2891 5.88675 14.3699 6.01965 14.4251C6.15256 14.4802 6.29503 14.5086 6.43892 14.5086C6.5828 14.5086 6.72527 14.4802 6.85818 14.4251C6.99108 14.3699 7.1118 14.2891 7.21344 14.1873L13.0069 8.39384C13.0752 8.32533 13.1136 8.23253 13.1136 8.13578C13.1136 8.03903 13.0752 7.94623 13.0069 7.87773L10.4242 5.29504ZM2.81761 12.9673C2.87451 12.9839 2.9263 13.0146 2.96817 13.0566L5.39102 15.4801C5.43297 15.522 5.46367 15.5738 5.48027 15.6307C5.49687 15.6876 5.49884 15.7478 5.48599 15.8056C5.47314 15.8635 5.44589 15.9172 5.40676 15.9617C5.36763 16.0062 5.3179 16.0402 5.26217 16.0603L1.46982 17.4291C1.40667 17.4509 1.33871 17.4546 1.27355 17.44C1.20839 17.4253 1.14859 17.3928 1.10087 17.346C1.05361 17.2988 1.02076 17.2391 1.00617 17.1739C0.991585 17.1087 0.995856 17.0407 1.01849 16.9778L2.38798 13.1854C2.40817 13.1297 2.44209 13.08 2.48661 13.0409C2.53114 13.0017 2.58482 12.9745 2.64268 12.9616C2.70054 12.9488 2.76071 12.9507 2.81761 12.9673Z" fill="black"/>
</svg>
