<svg width="20" height="14" viewBox="0 0 20 14" fill="none" xmlns="http://www.w3.org/2000/svg">
<path d="M18.8423 1.49256C18.7993 1.24418 18.6779 1.01606 18.496 0.841561C18.3141 0.66706 18.0811 0.55532 17.8312 0.522673C12.6324 -0.174224 7.36392 -0.174224 2.16518 0.522673C1.91528 0.555158 1.68234 0.666746 1.50041 0.841116C1.31848 1.01549 1.19712 1.24349 1.15407 1.49178C0.499181 5.13447 0.499181 8.86475 1.15407 12.5074C1.19708 12.7558 1.31842 12.9839 1.50034 13.1584C1.68226 13.3329 1.91522 13.4447 2.16518 13.4773C4.76217 13.8255 7.37949 14.0001 9.99972 14C12.6194 14 15.2362 13.8254 17.8327 13.4773C18.0827 13.4448 18.3157 13.3331 18.4977 13.1586C18.6796 12.984 18.8009 12.7559 18.8438 12.5074C19.4978 8.86489 19.4973 5.13493 18.8423 1.49256ZM6.88862 9.34889V4.65189C6.89539 4.51533 6.93666 4.38271 7.00859 4.26643C7.08051 4.15015 7.18074 4.054 7.2999 3.98696C7.41907 3.91992 7.55328 3.88418 7.69 3.88308C7.82673 3.88198 7.9615 3.91556 8.08173 3.98067L12.6862 6.32878C12.8127 6.38944 12.9196 6.48464 12.9943 6.6034C13.0691 6.72217 13.1088 6.85965 13.1088 7C13.1088 7.14034 13.0691 7.27783 12.9943 7.3966C12.9196 7.51536 12.8127 7.61056 12.6862 7.67122L8.08173 10.0193C7.96156 10.0844 7.82685 10.118 7.69019 10.1169C7.55352 10.1159 7.41936 10.0802 7.30021 10.0133C7.18107 9.9463 7.08083 9.85026 7.00885 9.73408C6.93688 9.6179 6.89551 9.48538 6.88862 9.34889Z" fill="black"/>
</svg>
